<svg xmlns="http://www.w3.org/2000/svg" xml:space="preserve" id="Layer_1" x="0" y="0" style="enable-background:new 0 0 288.5 280.3" version="1.1" viewBox="0 0 288.5 280.3"><style>.st1{fill:#f2f2f2}.st2{fill:#231f20}.st3{fill:none;stroke-width:8;stroke-miterlimit:10}.st3,.st4,.st5{stroke:#231f20}.st4{fill:none;stroke-width:7;stroke-miterlimit:10}.st5{stroke-width:6}.st5,.st6,.st7{fill:none;stroke-miterlimit:10}.st6{stroke:#231f20;stroke-width:.5}.st7{stroke:#000}.st8{fill:#fff}.st9{fill:#232323}.st10{fill:none;stroke:#231f20;stroke-width:11;stroke-miterlimit:10}.st11{fill:#141414}.st12,.st13,.st14,.st15{fill:none;stroke:#231f20;stroke-width:10;stroke-miterlimit:10}.st13,.st14,.st15{stroke-width:9}.st14,.st15{stroke:#f2f2f2}.st15{stroke:#231f20;stroke-width:5}.st16{fill:#011122}</style><switch><g><path d="m0 277.2.1-74.5c0-64.2 52.1-116.2 116.3-116.2H166c1.6 0 3 1.3 3 3l-.2 190.7h-46.4c-1.6 0-2.9-1.3-2.9-2.9l.1-139.1c0-1.6-1.3-2.9-2.9-2.9-37.1 0-67.2 29.7-67.3 66.5v26.1c0 1.6 1.3 2.9 2.9 2.9h43.6c1.6 0 3 1.3 3 3v43.4c0 1.6-1.3 3-3 3H3c-1.7 0-3-1.4-3-3zm196.7-83.6 88.7.1c1.6 0 3-1.3 3-3l.1-76.4C288.5 51.3 238.4.1 176.7 0h-50c-1.6 0-3 1.3-3 3v55.8c0 1.6 1.3 3 3 3h39.4c1.6 0 2.9-1.3 2.9-2.9v-7.5c0-1.6 1.3-2.9 2.9-2.9 37.1 0 67.2 29.9 67.2 66.8v26.1c0 1.6-1.3 2.9-2.9 2.9h-39.4c-1.6 0-3 1.3-3 3v43.4c-.1 1.6 1.2 2.9 2.9 2.9z" style="fill:#2f75ba"/></g></switch></svg>